# xmcd
#
# Track frame offsets:
#	150
#	12920
#	30770
#	45430
#	61232
#	76105
#	90382
#	108545
#	122322
#	139042
#	150070
#
# Disc length: 2311 seconds
# Revision: 0
# Processed by: cddbd v1.5.2PL0 Copyright (c) Steve Scherf et al.
# Submitted via: dBpowerAMP V12.0
#
DISCID=6609050b
DTITLE=Harold Hill - Harold Hill
DYEAR=2002
DGENRE=Country
TTITLE0=Cowboy Up
TTITLE1=Jump on It
TTITLE2=Pick Me
TTITLE3=Dig Another Well
TTITLE4=From Now On
TTITLE5=Hard Times
TTITLE6=San Antonio Sweetheart
TTITLE7=Perfume
TTITLE8=Merle Made Me Do It
TTITLE9=She Just Started Liking Cheatin' Songs
TTITLE10=Little Cowgirl Goodnight
EXTD=
EXTT0=
EXTT1=
EXTT2=
EXTT3=
EXTT4=
EXTT5=
EXTT6=
EXTT7=
EXTT8=
EXTT9=
EXTT10=
PLAYORDER=
